<svg width="17" height="18" viewBox="0 0 17 18" fill="none" xmlns="http://www.w3.org/2000/svg">
<path d="M15.4898 7.90622L2.36484 0.414817C2.1436 0.290712 1.88983 0.236856 1.63726 0.260403C1.38468 0.28395 1.14525 0.383787 0.950762 0.54665C0.756276 0.709513 0.615943 0.927694 0.548407 1.17221C0.48087 1.41673 0.489325 1.676 0.57265 1.9156L2.99452 8.98357C2.99421 8.98616 2.99421 8.98878 2.99452 8.99138C2.99409 8.99397 2.99409 8.99661 2.99452 8.99919L0.57265 16.0828C0.50592 16.2713 0.485375 16.473 0.512739 16.6711C0.540103 16.8691 0.614578 17.0577 0.729913 17.221C0.845248 17.3844 0.998077 17.5176 1.17557 17.6097C1.35307 17.7017 1.55005 17.7498 1.74999 17.75C1.96692 17.7494 2.18004 17.6929 2.36874 17.5859L15.4867 10.082C15.6802 9.97361 15.8414 9.81568 15.9537 9.62443C16.066 9.43318 16.1254 9.21549 16.1258 8.99369C16.1262 8.7719 16.0676 8.554 15.956 8.36234C15.8443 8.17069 15.6837 8.01219 15.4906 7.9031L15.4898 7.90622ZM1.74999 16.5V16.4929L4.10468 9.62497H8.62499C8.79075 9.62497 8.94973 9.55913 9.06694 9.44192C9.18415 9.32471 9.24999 9.16573 9.24999 8.99997C9.24999 8.83421 9.18415 8.67524 9.06694 8.55803C8.94973 8.44082 8.79075 8.37497 8.62499 8.37497H4.11093L1.75468 1.50935L1.74999 1.49997L14.875 8.98669L1.74999 16.5Z" fill="white" fill-opacity="0.4"/>
</svg>
